<!-- this comment is needed so that Vue does not inlining svg in the production build                                                                                                                                                                                                                                                                                                                                                                                                                                                                                                                                                                                                                                                                                                                                                                                                                                                                                                                                                                                                                                                                                                                                                                                                                                                                                                                                                                                                                                                                                                                                                                                                                                                                                                                                                                                                                                                                                                                                                                                                                                                                                                                                                                                                                                                                                                                                                                                                                                                                                                                                                                                                                                                                                                                                                                                                                                                                                                                                                                                                                                                                                                                                                                                                                                                                                                                                                                                                                                                                                                                                                                                                                                                                                                                                                                     -->
<svg xmlns="http://www.w3.org/2000/svg">

  <svg id="search" viewBox="0 0 22 22">
    <path fill="currentColor" d="m20.796 19.204-4.452-4.454a8.636 8.636 0 1 0-1.594 1.594l4.456 4.457a1.126 1.126 0 1 0 1.594-1.594l-.004-.003ZM3.125 9.5A6.375 6.375 0 1 1 9.5 15.875 6.381 6.381 0 0 1 3.125 9.5Z"/>
  </svg>

  <svg id="cart" viewBox="0 0 23 22">
    <path fill="currentColor" d="M9.375 19.25a1.875 1.875 0 1 1-3.75 0 1.875 1.875 0 0 1 3.75 0Zm7.875-1.875a1.875 1.875 0 1 0 0 3.75 1.875 1.875 0 0 0 0-3.75Zm4.825-11.294-2.558 8.316a2.614 2.614 0 0 1-2.51 1.853H7.775a2.637 2.637 0 0 1-2.525-1.904L2.045 3.125h-.92a1.125 1.125 0 0 1 0-2.25h1.202a1.882 1.882 0 0 1 1.803 1.36l.683 2.39H21a1.125 1.125 0 0 1 1.075 1.456Zm-2.598.794H5.455l1.959 6.853a.375.375 0 0 0 .36.272h9.233a.375.375 0 0 0 .36-.264l2.11-6.861Z"/>
  </svg>

  <svg id="user" viewBox="0 0 22 22">
    <path fill="currentColor" d="M11 .88a10.12 10.12 0 1 0 0 20.24A10.12 10.12 0 0 0 11 .87ZM6.46 17.43a5.62 5.62 0 0 1 9.08 0 7.85 7.85 0 0 1-9.08 0Zm1.92-7.18a2.62 2.62 0 1 1 5.24 0 2.62 2.62 0 0 1-5.24 0Zm8.8 5.62a7.83 7.83 0 0 0-2.71-2.2 4.88 4.88 0 1 0-6.94 0 7.83 7.83 0 0 0-2.72 2.2 7.88 7.88 0 1 1 12.37 0Z"/>
  </svg>

</svg>